<svg width="452" height="141" viewBox="0 0 452 141" fill="none" xmlns="http://www.w3.org/2000/svg">
<path d="M116.396 70.2537C122.436 70.2537 127.333 65.3568 127.333 59.3162C127.333 53.2755 122.436 48.3787 116.396 48.3787C110.355 48.3787 105.458 53.2755 105.458 59.3162C105.458 65.3568 110.355 70.2537 116.396 70.2537Z" fill="#CBC3BE" stroke="#8C786D" stroke-width="8.75" stroke-linecap="round" stroke-linejoin="round"/>
<path d="M24.5205 70.2537C30.5611 70.2537 35.458 65.3568 35.458 59.3162C35.458 53.2755 30.5611 48.3787 24.5205 48.3787C18.4799 48.3787 13.583 53.2755 13.583 59.3162C13.583 65.3568 18.4799 70.2537 24.5205 70.2537Z" fill="#CBC3BE" stroke="#8C786D" stroke-width="8.75" stroke-linecap="round" stroke-linejoin="round"/>
<path d="M50.7705 44.0037C56.8111 44.0037 61.708 39.1068 61.708 33.0662C61.708 27.0255 56.8111 22.1287 50.7705 22.1287C44.7299 22.1287 39.833 27.0255 39.833 33.0662C39.833 39.1068 44.7299 44.0037 50.7705 44.0037Z" fill="#CBC3BE" stroke="#8C786D" stroke-width="8.75" stroke-linecap="round" stroke-linejoin="round"/>
<path d="M90.1455 44.0037C96.1861 44.0037 101.083 39.1068 101.083 33.0662C101.083 27.0255 96.1861 22.1287 90.1455 22.1287C84.1049 22.1287 79.208 27.0255 79.208 33.0662C79.208 39.1068 84.1049 44.0037 90.1455 44.0037Z" fill="#CBC3BE" stroke="#8C786D" stroke-width="8.75" stroke-linecap="round" stroke-linejoin="round"/>
<path d="M100.645 85.5114C95.1635 82.4413 91.115 77.3314 89.3799 71.2927C88.1997 67.1856 85.7154 63.574 82.3019 61.0032C78.8885 58.4325 74.7312 57.0421 70.458 57.0421C66.1847 57.0421 62.0275 58.4325 58.614 61.0032C55.2006 63.574 52.7162 67.1856 51.5361 71.2927C49.801 77.3314 45.7524 82.4413 40.2705 85.5114C36.8596 87.3698 34.1638 90.3101 32.608 93.8692C31.0521 97.4283 30.7246 101.404 31.677 105.17C32.6294 108.935 34.8076 112.277 37.8684 114.669C40.9292 117.06 44.6987 118.365 48.583 118.379C50.9297 118.38 53.2533 117.915 55.4189 117.011C60.1864 115.035 65.2969 114.017 70.458 114.017C75.6191 114.017 80.7295 115.035 85.497 117.011C87.6627 117.915 89.9863 118.38 92.333 118.379C96.2173 118.365 99.9867 117.06 103.048 114.669C106.108 112.277 108.287 108.935 109.239 105.17C110.191 101.404 109.864 97.4283 108.308 93.8692C106.752 90.3101 104.056 87.3698 100.645 85.5114Z" fill="#CBC3BE" stroke="#8C786D" stroke-width="8.75" stroke-linecap="round" stroke-linejoin="round"/>
<path d="M158.09 112.546C157.471 112.778 156.775 112.894 156.002 112.894C153.527 112.894 151.014 112.12 148.462 110.574C145.91 109.027 144.634 107.635 144.634 106.398C144.634 105.006 145.369 103.111 146.838 100.714L145.678 25.4297C144.363 23.1097 143.706 21.2923 143.706 19.9777C143.706 16.1883 146.529 14.2937 152.174 14.2937C155.654 14.2937 158.709 15.183 161.338 16.9617C163.658 18.5857 164.818 20.287 164.818 22.0657C164.818 22.9937 163.851 25.391 161.918 29.2577L163.078 78.4417C172.126 57.0977 180.865 38.0737 189.294 21.3697C188.985 20.4417 188.83 19.6683 188.83 19.0497C188.83 15.3377 191.537 13.4817 196.95 13.4817C200.121 13.4817 203.059 14.2163 205.766 15.6857C208.55 17.155 209.942 18.9723 209.942 21.1377C209.942 22.0657 208.975 24.463 207.042 28.3297V98.6257C208.357 101.178 209.014 103.42 209.014 105.354C209.014 107.983 206.694 109.298 202.054 109.298C199.27 109.298 196.331 108.602 193.238 107.21C190.145 105.818 188.598 104.464 188.598 103.15C188.598 101.758 189.333 99.863 190.802 97.4657V50.0217C185.311 64.019 176.611 82.7337 164.702 106.166C164.315 107.171 163.929 108.138 163.542 109.066C162.459 110.767 160.642 111.927 158.09 112.546ZM291.021 105.354C281.277 106.05 264.07 107.132 239.401 108.602C236.849 111.076 233.717 112.236 230.005 112.082C225.055 111.772 220.995 108.022 217.825 100.83C217.825 98.587 218.791 96.2283 220.725 93.7537L219.565 24.6177C218.173 21.3697 217.477 19.0883 217.477 17.7737C217.477 15.1443 219.797 13.8297 224.437 13.8297C227.298 13.8297 230.237 14.5643 233.253 16.0337C236.346 17.4257 237.893 18.7403 237.893 19.9777C237.893 21.447 237.197 23.3803 235.805 25.7777L236.385 93.9857L255.061 92.8257C255.061 92.2843 255.022 91.6657 254.945 90.9697C254.867 87.6443 254.751 83.8937 254.597 79.7177C254.442 75.5417 254.249 71.0563 254.017 66.2617C253.862 61.467 253.707 56.6337 253.553 51.7617C253.398 46.8897 253.282 42.1337 253.205 37.4937C253.127 32.8537 253.089 28.5617 253.089 24.6177C251.697 21.3697 251.001 19.0883 251.001 17.7737C251.001 15.1443 253.321 13.8297 257.961 13.8297C260.822 13.8297 263.761 14.5643 266.777 16.0337C269.87 17.4257 271.417 18.7403 271.417 19.9777C271.417 21.447 270.721 23.3803 269.329 25.7777L269.793 91.8977L287.309 90.8537L286.265 25.7777C284.95 21.7563 284.293 19.0883 284.293 17.7737C284.293 15.1443 286.613 13.8297 291.253 13.8297C294.114 13.8297 297.053 14.5643 300.069 16.0337C303.162 17.4257 304.709 18.7403 304.709 19.9777C304.709 21.447 303.974 23.3803 302.505 25.7777V88.3017C303.51 88.3017 304.399 88.727 305.173 89.5777C305.946 90.351 306.41 91.743 306.565 93.7537C304.863 101.255 302.35 105.276 299.025 105.818C297.71 105.74 296.318 105.663 294.849 105.586C293.379 105.508 292.103 105.431 291.021 105.354ZM327.672 112.546C327.053 112.778 326.357 112.894 325.584 112.894C323.109 112.894 320.596 112.12 318.044 110.574C315.492 109.027 314.216 107.635 314.216 106.398C314.216 105.006 314.951 103.111 316.42 100.714L315.26 25.4297C313.945 23.1097 313.288 21.2923 313.288 19.9777C313.288 16.1883 316.111 14.2937 321.756 14.2937C325.236 14.2937 328.291 15.183 330.92 16.9617C333.24 18.5857 334.4 20.287 334.4 22.0657C334.4 22.9937 333.433 25.391 331.5 29.2577L332.66 78.4417C341.708 57.0977 350.447 38.0737 358.876 21.3697C358.567 20.4417 358.412 19.6683 358.412 19.0497C358.412 15.3377 361.119 13.4817 366.532 13.4817C369.703 13.4817 372.641 14.2163 375.348 15.6857C378.132 17.155 379.524 18.9723 379.524 21.1377C379.524 22.0657 378.557 24.463 376.624 28.3297V98.6257C377.939 101.178 378.596 103.42 378.596 105.354C378.596 107.983 376.276 109.298 371.636 109.298C368.852 109.298 365.913 108.602 362.82 107.21C359.727 105.818 358.18 104.464 358.18 103.15C358.18 101.758 358.915 99.863 360.384 97.4657V50.0217C354.893 64.019 346.193 82.7337 334.284 106.166C333.897 107.171 333.511 108.138 333.124 109.066C332.041 110.767 330.224 111.927 327.672 112.546ZM427.891 68.4657L404.691 71.9457V100.366C406.005 102.918 406.663 105.199 406.663 107.21C406.663 109.839 404.343 111.154 399.703 111.154C396.841 111.154 393.864 110.419 390.771 108.95C387.755 107.558 386.247 106.243 386.247 105.006C386.247 103.536 386.981 101.603 388.451 99.2057V74.0337C387.909 73.415 387.407 72.6417 386.943 71.7137C386.556 70.7083 386.363 69.5483 386.363 68.2337C386.363 66.3003 386.595 64.7537 387.059 63.5937C387.523 62.3563 387.987 61.1963 388.451 60.1137V25.0817C387.136 22.839 386.479 21.0603 386.479 19.7457C386.479 15.9563 389.301 14.0617 394.947 14.0617C398.427 14.0617 401.404 14.9123 403.879 16.6137C406.353 18.315 407.591 20.055 407.591 21.8337C407.591 22.6843 406.624 25.043 404.691 28.9097V57.0977L427.891 53.6177V24.6177C426.731 21.9883 426.151 19.7843 426.151 18.0057C426.151 16.7683 426.46 15.9177 427.079 15.4537C428.239 14.603 429.283 14.139 430.211 14.0617C431.603 14.0617 432.995 14.0617 434.387 14.0617C437.171 13.907 439.8 14.371 442.275 15.4537C445.445 16.8457 447.031 18.9723 447.031 21.8337C447.031 22.6843 446.064 25.043 444.131 28.9097V51.4137C444.904 52.0323 445.6 52.767 446.219 53.6177C446.837 54.391 447.147 55.5123 447.147 56.9817C447.147 59.2243 446.837 61.1963 446.219 62.8977C445.6 64.5217 444.904 65.7977 444.131 66.7257V95.7257C445.523 98.9737 446.219 101.255 446.219 102.57C446.219 105.199 443.899 106.514 439.259 106.514C436.397 106.514 433.42 105.818 430.327 104.426C427.311 102.956 425.803 101.603 425.803 100.366C425.803 98.8963 426.499 96.963 427.891 94.5657V68.4657Z" fill="#A2938C"/>
</svg>
